<svg xmlns="http://www.w3.org/2000/svg" viewBox="0 0 3840 2160"><g transform="
          rotate(0 1920 1080) 
          translate(-0 -0)
          scale(1)
        "><rect width="3840" height="2160" fill="rgb(255, 23, 23)"></rect><g transform="translate(0, 0)"><path fill="rgb(196, 14, 36)" fill-opacity="1" d="M0,302.523L53.333,300.064C106.667,297.606,213.333,292.689,320,291.927C426.667,291.165,533.333,294.557,640,294.938C746.667,295.32,853.333,292.69,960,259.871C1066.667,227.052,1173.333,164.043,1280,158.721C1386.667,153.4,1493.333,205.766,1600,189.717C1706.667,173.667,1813.333,89.202,1920,84.412C2026.667,79.622,2133.333,154.507,2240,173.159C2346.667,191.812,2453.333,154.232,2560,119.448C2666.667,84.664,2773.333,52.676,2880,69.188C2986.667,85.699,3093.333,150.71,3200,162.433C3306.667,174.155,3413.333,132.589,3520,111.783C3626.667,90.978,3733.333,90.935,3786.667,90.913L3840,90.891L3840,2160L3786.667,2160C3733.333,2160,3626.667,2160,3520,2160C3413.333,2160,3306.667,2160,3200,2160C3093.333,2160,2986.667,2160,2880,2160C2773.333,2160,2666.667,2160,2560,2160C2453.333,2160,2346.667,2160,2240,2160C2133.333,2160,2026.667,2160,1920,2160C1813.333,2160,1706.667,2160,1600,2160C1493.333,2160,1386.667,2160,1280,2160C1173.333,2160,1066.667,2160,960,2160C853.333,2160,746.667,2160,640,2160C533.333,2160,426.667,2160,320,2160C213.333,2160,106.667,2160,53.333,2160L0,2160Z"></path></g><g transform="translate(0, 308.57142857142856)"><path fill="rgb(152, 13, 44)" fill-opacity="1" d="M0,271.968L53.333,274.206C106.667,276.443,213.333,280.919,320,244.007C426.667,207.095,533.333,128.797,640,96.534C746.667,64.271,853.333,78.045,960,108.234C1066.667,138.423,1173.333,185.028,1280,217.997C1386.667,250.966,1493.333,270.3,1600,257.584C1706.667,244.868,1813.333,200.102,1920,154.554C2026.667,109.006,2133.333,62.677,2240,37.17C2346.667,11.663,2453.333,6.978,2560,35.211C2666.667,63.443,2773.333,124.592,2880,143.813C2986.667,163.034,3093.333,140.326,3200,116.724C3306.667,93.121,3413.333,68.625,3520,61.933C3626.667,55.241,3733.333,66.353,3786.667,71.909L3840,77.466L3840,1851.429L3786.667,1851.429C3733.333,1851.429,3626.667,1851.429,3520,1851.429C3413.333,1851.429,3306.667,1851.429,3200,1851.429C3093.333,1851.429,2986.667,1851.429,2880,1851.429C2773.333,1851.429,2666.667,1851.429,2560,1851.429C2453.333,1851.429,2346.667,1851.429,2240,1851.429C2133.333,1851.429,2026.667,1851.429,1920,1851.429C1813.333,1851.429,1706.667,1851.429,1600,1851.429C1493.333,1851.429,1386.667,1851.429,1280,1851.429C1173.333,1851.429,1066.667,1851.429,960,1851.429C853.333,1851.429,746.667,1851.429,640,1851.429C533.333,1851.429,426.667,1851.429,320,1851.429C213.333,1851.429,106.667,1851.429,53.333,1851.429L0,1851.429Z"></path></g><g transform="translate(0, 617.1428571428571)"><path fill="rgb(139, 25, 38)" fill-opacity="1" d="M0,91.422L53.333,116.374C106.667,141.326,213.333,191.23,320,225.214C426.667,259.199,533.333,277.265,640,288.101C746.667,298.938,853.333,302.545,960,281.678C1066.667,260.811,1173.333,215.469,1280,179.395C1386.667,143.321,1493.333,116.514,1600,93.117C1706.667,69.72,1813.333,49.733,1920,79.263C2026.667,108.792,2133.333,187.839,2240,233.286C2346.667,278.734,2453.333,290.582,2560,296.927C2666.667,303.272,2773.333,304.112,2880,286.527C2986.667,268.942,3093.333,232.93,3200,210.443C3306.667,187.956,3413.333,178.993,3520,160.679C3626.667,142.365,3733.333,114.7,3786.667,100.868L3840,87.035L3840,1542.857L3786.667,1542.857C3733.333,1542.857,3626.667,1542.857,3520,1542.857C3413.333,1542.857,3306.667,1542.857,3200,1542.857C3093.333,1542.857,2986.667,1542.857,2880,1542.857C2773.333,1542.857,2666.667,1542.857,2560,1542.857C2453.333,1542.857,2346.667,1542.857,2240,1542.857C2133.333,1542.857,2026.667,1542.857,1920,1542.857C1813.333,1542.857,1706.667,1542.857,1600,1542.857C1493.333,1542.857,1386.667,1542.857,1280,1542.857C1173.333,1542.857,1066.667,1542.857,960,1542.857C853.333,1542.857,746.667,1542.857,640,1542.857C533.333,1542.857,426.667,1542.857,320,1542.857C213.333,1542.857,106.667,1542.857,53.333,1542.857L0,1542.857Z"></path></g><g transform="translate(0, 925.7142857142857)"><path fill="rgb(140, 41, 25)" fill-opacity="1" d="M0,301.138L53.333,295.216C106.667,289.294,213.333,277.45,320,274.083C426.667,270.716,533.333,275.826,640,269.897C746.667,263.969,853.333,247.003,960,204.676C1066.667,162.35,1173.333,94.665,1280,102.77C1386.667,110.875,1493.333,194.772,1600,213.833C1706.667,232.894,1813.333,187.12,1920,148.197C2026.667,109.274,2133.333,77.202,2240,76.541C2346.667,75.88,2453.333,106.63,2560,149.48C2666.667,192.33,2773.333,247.281,2880,250.577C2986.667,253.872,3093.333,205.513,3200,177.017C3306.667,148.52,3413.333,139.886,3520,116.94C3626.667,93.994,3733.333,56.737,3786.667,38.109L3840,19.48L3840,1234.286L3786.667,1234.286C3733.333,1234.286,3626.667,1234.286,3520,1234.286C3413.333,1234.286,3306.667,1234.286,3200,1234.286C3093.333,1234.286,2986.667,1234.286,2880,1234.286C2773.333,1234.286,2666.667,1234.286,2560,1234.286C2453.333,1234.286,2346.667,1234.286,2240,1234.286C2133.333,1234.286,2026.667,1234.286,1920,1234.286C1813.333,1234.286,1706.667,1234.286,1600,1234.286C1493.333,1234.286,1386.667,1234.286,1280,1234.286C1173.333,1234.286,1066.667,1234.286,960,1234.286C853.333,1234.286,746.667,1234.286,640,1234.286C533.333,1234.286,426.667,1234.286,320,1234.286C213.333,1234.286,106.667,1234.286,53.333,1234.286L0,1234.286Z"></path></g><g transform="translate(0, 1234.2857142857142)"><path fill="rgb(122, 45, 12)" fill-opacity="1" d="M0,16.832L53.333,34.048C106.667,51.264,213.333,85.697,320,132.363C426.667,179.029,533.333,237.929,640,257.901C746.667,277.873,853.333,258.916,960,216.471C1066.667,174.027,1173.333,108.094,1280,116.206C1386.667,124.319,1493.333,206.477,1600,219.31C1706.667,232.144,1813.333,175.653,1920,162.414C2026.667,149.174,2133.333,179.186,2240,181.035C2346.667,182.884,2453.333,156.57,2560,159.661C2666.667,162.752,2773.333,195.247,2880,211.054C2986.667,226.861,3093.333,225.98,3200,210.818C3306.667,195.657,3413.333,166.217,3520,157.722C3626.667,149.226,3733.333,161.676,3786.667,167.901L3840,174.126L3840,925.714L3786.667,925.714C3733.333,925.714,3626.667,925.714,3520,925.714C3413.333,925.714,3306.667,925.714,3200,925.714C3093.333,925.714,2986.667,925.714,2880,925.714C2773.333,925.714,2666.667,925.714,2560,925.714C2453.333,925.714,2346.667,925.714,2240,925.714C2133.333,925.714,2026.667,925.714,1920,925.714C1813.333,925.714,1706.667,925.714,1600,925.714C1493.333,925.714,1386.667,925.714,1280,925.714C1173.333,925.714,1066.667,925.714,960,925.714C853.333,925.714,746.667,925.714,640,925.714C533.333,925.714,426.667,925.714,320,925.714C213.333,925.714,106.667,925.714,53.333,925.714L0,925.714Z"></path></g><g transform="translate(0, 1542.857142857143)"><path fill="rgb(70, 28, 4)" fill-opacity="1" d="M0,173.29L53.333,170.402C106.667,167.513,213.333,161.735,320,156.666C426.667,151.596,533.333,147.234,640,126.479C746.667,105.724,853.333,68.576,960,46.393C1066.667,24.21,1173.333,16.992,1280,27.299C1386.667,37.606,1493.333,65.436,1600,82.932C1706.667,100.428,1813.333,107.59,1920,109.212C2026.667,110.835,2133.333,106.92,2240,116.067C2346.667,125.214,2453.333,147.423,2560,163.427C2666.667,179.43,2773.333,189.228,2880,204.567C2986.667,219.905,3093.333,240.785,3200,237.219C3306.667,233.654,3413.333,205.643,3520,176.679C3626.667,147.714,3733.333,117.797,3786.667,102.838L3840,87.879L3840,617.143L3786.667,617.143C3733.333,617.143,3626.667,617.143,3520,617.143C3413.333,617.143,3306.667,617.143,3200,617.143C3093.333,617.143,2986.667,617.143,2880,617.143C2773.333,617.143,2666.667,617.143,2560,617.143C2453.333,617.143,2346.667,617.143,2240,617.143C2133.333,617.143,2026.667,617.143,1920,617.143C1813.333,617.143,1706.667,617.143,1600,617.143C1493.333,617.143,1386.667,617.143,1280,617.143C1173.333,617.143,1066.667,617.143,960,617.143C853.333,617.143,746.667,617.143,640,617.143C533.333,617.143,426.667,617.143,320,617.143C213.333,617.143,106.667,617.143,53.333,617.143L0,617.143Z"></path></g><g transform="translate(0, 1851.4285714285713)"><path fill="rgb(0, 0, 0)" fill-opacity="1" d="M0,182.107L53.333,161.413C106.667,140.719,213.333,99.331,320,110.564C426.667,121.797,533.333,185.65,640,198.184C746.667,210.718,853.333,171.932,960,180.573C1066.667,189.214,1173.333,245.282,1280,268.912C1386.667,292.542,1493.333,283.734,1600,259.011C1706.667,234.288,1813.333,193.648,1920,191.155C2026.667,188.662,2133.333,224.315,2240,221.386C2346.667,218.457,2453.333,176.946,2560,159.877C2666.667,142.808,2773.333,150.18,2880,134.034C2986.667,117.887,3093.333,78.222,3200,84.675C3306.667,91.129,3413.333,143.701,3520,137.344C3626.667,130.986,3733.333,65.699,3786.667,33.055L3840,0.412L3840,308.571L3786.667,308.571C3733.333,308.571,3626.667,308.571,3520,308.571C3413.333,308.571,3306.667,308.571,3200,308.571C3093.333,308.571,2986.667,308.571,2880,308.571C2773.333,308.571,2666.667,308.571,2560,308.571C2453.333,308.571,2346.667,308.571,2240,308.571C2133.333,308.571,2026.667,308.571,1920,308.571C1813.333,308.571,1706.667,308.571,1600,308.571C1493.333,308.571,1386.667,308.571,1280,308.571C1173.333,308.571,1066.667,308.571,960,308.571C853.333,308.571,746.667,308.571,640,308.571C533.333,308.571,426.667,308.571,320,308.571C213.333,308.571,106.667,308.571,53.333,308.571L0,308.571Z"></path></g></g></svg>